# xmcd
#
# Track frame offsets: 
#        150
#        10872
#        19734
#        30472
#        41494
#        51512
#        63169
#        73694
#        86172
#        100612
#        111174
#        120729
#        133509
#        143794
#        154324
#        166352
#        176014
#        189657
#        206869
#        222554
#        232974
#        264957
#        279512
#        293124
#        306864
#        326402
#        343864
#
# Disc length: 4788 seconds
#
# Revision: 3
# Processed by: cddbd v1.5.2PL0 Copyright (c) Steve Scherf et al.
# Submitted via: ExactAudioCopy v1.3
#
DISCID=9212b21b
DTITLE=The Beatles - The Beatles 1
DYEAR=1900
DGENRE=
TTITLE0=Love me do
TTITLE1=From me to you
TTITLE2=She love you
TTITLE3=I want to hold your Hand
TTITLE4=Can't buy me love
TTITLE5=A hard day's night
TTITLE6=I feel fine
TTITLE7=Eight days a week
TTITLE8=Ticket to ride
TTITLE9=Help !!
TTITLE10=Yesterday
TTITLE11=Day tripper
TTITLE12=We can't work it out
TTITLE13=Paperback writer
TTITLE14=Yellow submarine
TTITLE15=Elenor Rigby
TTITLE16=Penny Lane
TTITLE17=All you need is love
TTITLE18=Hello, good bye
TTITLE19=Lady Madonna
TTITLE20=Hey Jude
TTITLE21=get back
TTITLE22=The Ballad of John and Yoko
TTITLE23=Something
TTITLE24=Come together
TTITLE25=Let it be
TTITLE26=The long and winding road
EXTD=
EXTT0=
EXTT1=
EXTT2=
EXTT3=
EXTT4=
EXTT5=
EXTT6=
EXTT7=
EXTT8=
EXTT9=
EXTT10=
EXTT11=
EXTT12=
EXTT13=
EXTT14=
EXTT15=
EXTT16=
EXTT17=
EXTT18=
EXTT19=
EXTT20=
EXTT21=
EXTT22=
EXTT23=
EXTT24=
EXTT25=
EXTT26=
PLAYORDER=
